<mxfile host="app.diagrams.net" modified="2023-05-28T15:54:08.009Z" agent="Mozilla/5.0 (Windows NT 10.0; Win64; x64) AppleWebKit/537.36 (KHTML, like Gecko) Chrome/113.0.0.0 Safari/537.36 Edg/113.0.1774.50" version="21.3.3" etag="jUUessee-lve-1ZIARu0" type="github">
  <diagram name="Page-1" id="ULA_VqPUTMM274U-24ki">
    <mxGraphModel>
      <root>
        <mxCell id="0" />
        <mxCell id="1" parent="0" />
      </root>
    </mxGraphModel>
  </diagram>
</mxfile>
